<?xml version="1.0" standalone="no"?>
<!DOCTYPE svg PUBLIC "-//W3C//DTD SVG 20010904//EN"
 "http://www.w3.org/TR/2001/REC-SVG-20010904/DTD/svg10.dtd">
<svg version="1.0" xmlns="http://www.w3.org/2000/svg"
 width="300.000000pt" height="287.000000pt" viewBox="0 0 300.000000 287.000000"
 preserveAspectRatio="xMidYMid meet">
<metadata>
Created by potrace 1.10, written by Peter Selinger 2001-2011
</metadata>
<g transform="translate(0.000000,287.000000) scale(0.100000,-0.100000)"
fill="#000000" stroke="none">
<path d="M630 2659 c0 -6 7 -34 15 -62 8 -29 21 -92 30 -142 14 -79 14 -90 0
-98 -11 -6 -15 -26 -15 -82 0 -59 -3 -75 -15 -75 -22 0 -35 -62 -42 -197 -5
-107 -8 -122 -24 -126 -16 -4 -19 -15 -19 -64 1 -32 5 -77 9 -101 5 -26 5 -45
-1 -49 -6 -3 -8 -30 -6 -59 4 -43 2 -54 -10 -54 -23 0 -7 -102 28 -176 17 -34
30 -71 30 -83 0 -12 6 -37 14 -56 12 -29 12 -34 0 -39 -8 -3 -14 -12 -14 -19
0 -19 93 -152 145 -207 23 -25 45 -57 49 -72 3 -15 26 -44 51 -65 25 -20 45
-45 45 -54 0 -18 102 -87 192 -130 36 -17 45 -26 37 -35 -8 -10 1 -19 38 -37
55 -28 188 -71 251 -82 23 -4 42 -10 42 -14 0 -10 85 -29 208 -46 142 -21 292
-19 418 6 157 30 159 30 224 -68 48 -72 67 -112 112 -235 19 -53 68 -29 68 33
0 30 -17 62 -85 165 -46 70 -87 142 -91 160 -9 46 -3 79 40 224 56 194 68 274
64 424 -3 96 -12 163 -32 251 -35 150 -58 221 -72 218 -6 -1 -19 25 -28 58
-23 83 -68 168 -108 205 -18 17 -46 47 -61 68 -20 25 -34 35 -46 31 -11 -3
-26 5 -42 21 -49 52 -209 133 -209 105 0 -6 -36 16 -80 48 -81 60 -113 77
-129 67 -4 -3 -44 13 -87 35 -52 27 -86 39 -103 36 -17 -3 -54 9 -112 38 -55
28 -90 40 -96 34 -6 -6 -52 11 -127 47 -65 30 -120 53 -123 50 -11 -10 -80 34
-191 123 -107 86 -142 106 -142 80z m148 -106 c100 -82 144 -107 227 -133 22
-7 79 -32 127 -55 51 -26 90 -39 95 -34 6 6 44 -7 95 -31 90 -42 108 -47 108
-29 0 6 43 -13 96 -42 64 -34 99 -48 103 -40 5 7 36 -9 90 -47 45 -31 89 -61
97 -67 10 -7 17 -6 23 4 7 11 20 7 67 -19 33 -18 81 -51 107 -72 28 -23 54
-37 62 -34 10 4 27 -12 51 -49 20 -30 40 -52 45 -50 13 9 60 -80 92 -173 16
-48 37 -94 47 -102 13 -11 29 -64 55 -185 36 -163 37 -176 32 -315 -5 -148
-33 -290 -86 -444 -38 -109 -27 -154 84 -319 60 -90 75 -120 75 -150 0 -63
-25 -45 -55 41 -28 78 -95 194 -143 245 -31 33 -48 33 -179 8 -129 -25 -291
-36 -335 -23 -18 6 -84 18 -147 26 -63 9 -121 22 -130 30 -9 8 -43 19 -76 26
-71 13 -142 35 -206 62 -34 14 -46 24 -42 36 3 13 -17 28 -78 60 -118 63 -161
91 -153 103 3 6 -19 33 -50 61 -31 27 -55 56 -54 63 2 7 -22 42 -54 77 -31 36
-77 94 -102 130 -42 60 -44 66 -26 71 19 5 19 7 5 47 -8 24 -15 53 -15 65 0
13 -14 53 -31 89 -38 80 -49 146 -26 146 13 0 15 9 10 56 -4 37 -2 58 6 63 8
5 9 21 1 61 -15 81 -13 150 5 150 8 0 15 8 16 18 0 9 2 37 4 62 2 25 7 79 10
120 8 101 14 121 34 118 13 -3 16 10 19 79 2 69 5 81 18 76 13 -5 15 1 9 43
-8 56 -41 217 -51 253 -9 31 -6 29 124 -76z"/>
<path d="M860 2322 c0 -20 136 -170 389 -427 275 -279 330 -339 452 -490 181
-224 385 -537 504 -775 21 -41 40 -70 42 -63 8 23 -147 303 -282 508 -190 289
-358 487 -736 870 -142 143 -281 288 -309 323 -51 62 -60 69 -60 54z"/>
<path d="M1475 1959 c26 -49 55 -178 55 -243 0 -43 3 -57 10 -46 29 46 -30
320 -70 320 -6 0 -4 -12 5 -31z"/>
<path d="M780 1882 c0 -12 118 -64 215 -96 149 -47 410 -105 422 -93 3 3 -5 8
-18 11 -13 3 -78 17 -144 31 -113 25 -355 101 -437 138 -21 10 -38 13 -38 9z"/>
<path d="M1834 1809 c52 -162 73 -335 58 -479 -9 -94 -8 -110 4 -97 12 11 24
180 18 252 -12 159 -49 325 -76 341 -8 5 -9 -1 -4 -17z"/>
<path d="M989 1436 c17 -20 140 -70 232 -94 97 -26 250 -49 404 -62 150 -12
161 -12 149 -1 -5 5 -74 14 -154 21 -251 19 -418 53 -540 107 -95 43 -105 46
-91 29z"/>
<path d="M2224 1182 c0 -178 -14 -288 -51 -417 -4 -15 -2 -17 6 -9 6 5 23 62
38 125 23 98 26 137 27 284 1 97 -3 177 -9 187 -7 11 -10 -41 -11 -170z"/>
<path d="M1587 1074 c-64 -15 -115 -39 -62 -28 17 3 44 11 60 17 17 7 61 12
99 11 39 0 60 3 50 7 -29 11 -83 9 -147 -7z"/>
<path d="M1305 890 c9 -14 122 -47 222 -65 49 -8 144 -15 213 -15 119 0 305
21 319 36 6 7 -12 5 -222 -16 -142 -14 -327 7 -482 54 -60 19 -58 19 -50 6z"/>
</g>
</svg>
